<svg width="148" height="147" viewBox="0 0 148 147" fill="none" xmlns="http://www.w3.org/2000/svg">
<path d="M9.2506 40.2167L9.24856 40.2209C6.00556 46.8067 3.97328 51.8195 2.7482 56.8312C1.52373 61.8404 1.1 66.8717 1.1 73.5C1.1 80.1283 1.52373 85.1596 2.7482 90.1688C3.97328 95.1805 6.00556 100.193 9.24858 106.779L9.25058 106.783C11.1452 110.722 12.63 113.416 14.5166 116.006C16.4052 118.598 18.7074 121.1 22.2527 124.646C32.9949 135.288 42.2173 140.639 55.6221 144.015L55.623 144.015C81.4539 150.572 106.374 143.821 125.248 125.145L125.6 125.5L125.248 125.145C134.489 116.004 140.147 106.675 144.223 93.8497C145.37 90.2099 146.035 87.6919 146.417 84.8093C146.8 81.9199 146.9 78.6487 146.9 73.5C146.9 68.3513 146.8 65.0801 146.417 62.1907C146.035 59.3081 145.37 56.7901 144.223 53.1503C140.147 40.3252 134.489 30.9963 125.248 21.8555L125.248 21.8553C115.007 11.7137 105.586 6.26193 92.3796 2.98529L92.377 2.98462C79.458 -0.29483 68.0433 -0.294724 55.2256 2.98396C42.2206 6.3593 32.7967 11.91 22.2527 22.3544C18.7074 25.8998 16.4052 28.4023 14.5166 30.9944C12.63 33.5839 11.1452 36.2779 9.2506 40.2167ZM121.829 71.9427L121.832 71.9481C122.214 72.6026 122.411 73.2338 122.348 73.886C122.284 74.5343 121.97 75.1257 121.487 75.7166L121.487 75.7167L121.479 75.7265C121.281 75.9558 120.912 76.2566 120.443 76.6027C119.96 76.9583 119.332 77.3894 118.582 77.8829C117.081 78.8705 115.076 80.1187 112.738 81.5311C108.062 84.3563 102.042 87.8464 96.0331 91.2355C90.0242 94.6245 84.0224 97.9148 79.3832 100.34C77.0644 101.552 75.0812 102.551 73.6059 103.238C72.8692 103.581 72.2515 103.85 71.7786 104.03C71.5428 104.119 71.3339 104.19 71.1593 104.236C71.0069 104.277 70.8095 104.32 70.6324 104.295L70.6258 104.294C70.1202 104.219 69.6229 104.113 69.2108 103.808C68.7827 103.492 68.5161 103.018 68.3312 102.36C68.1483 101.71 68.03 100.825 67.9374 99.6195C67.8444 98.4084 67.7753 96.8429 67.7003 94.8185L67.7003 94.8174L67.6995 94.7938C67.6248 92.6519 67.5689 91.0507 67.4856 89.8422C67.4012 88.6196 67.2911 87.8475 67.1251 87.344C66.9692 86.871 66.7823 86.6869 66.5479 86.5735C66.2569 86.4328 65.8465 86.3749 65.1453 86.297C60.2462 85.7581 53.85 86.8358 47.6257 88.9851C41.4057 91.1329 35.4205 94.3291 31.3339 97.9721C30.2787 98.9268 29.2694 99.785 28.4695 100.407C28.0703 100.718 27.7158 100.975 27.4297 101.158C27.2873 101.248 27.1526 101.326 27.032 101.384C26.9317 101.431 26.7705 101.5 26.6 101.5C26.4416 101.5 26.2797 101.464 26.1318 101.374C25.9844 101.286 25.8786 101.161 25.8058 101.028C25.6686 100.776 25.635 100.469 25.6397 100.176C25.6493 99.5789 25.8277 98.7681 26.1141 97.8332C26.6921 95.9463 27.7639 93.3858 29.0872 90.6451C31.7296 85.1725 35.4293 78.8699 38.3288 75.665C45.6085 67.5766 53.1087 63.4284 65.2019 61.0097L65.209 61.0084C65.9081 60.8789 66.3252 60.79 66.6195 60.6278C66.8625 60.4938 67.0445 60.2949 67.1836 59.8313C67.3322 59.336 67.416 58.5868 67.4581 57.4041C67.4999 56.2307 67.5 54.6789 67.5 52.6C67.5 50.3406 67.5753 48.1774 67.7015 46.5366C67.7645 45.7178 67.8409 45.0193 67.9289 44.5007C67.9727 44.2428 68.0216 44.0158 68.0776 43.8356C68.1055 43.7459 68.1389 43.6554 68.1804 43.5736C68.212 43.5113 68.2665 43.4169 68.3563 43.336C68.931 42.7422 69.7399 42.5432 70.8583 42.7068C71.9692 42.8694 73.4705 43.3987 75.5473 44.3586C79.7112 46.2833 86.3577 50.0215 97.1516 56.3679C103.605 60.1199 109.585 63.7229 114.028 66.5141C116.25 67.9094 118.091 69.1041 119.416 70.0144C120.078 70.4691 120.617 70.8565 121.012 71.1645C121.209 71.3183 121.376 71.4566 121.506 71.5766C121.626 71.6866 121.751 71.8136 121.829 71.9427Z" stroke="#ffffff" fill="#ffffff"/>
</svg>
