<?xml version="1.0" standalone="no"?>
<!DOCTYPE svg PUBLIC "-//W3C//DTD SVG 20010904//EN"
 "http://www.w3.org/TR/2001/REC-SVG-20010904/DTD/svg10.dtd">
<svg version="1.0" xmlns="http://www.w3.org/2000/svg"
 width="189.000000pt" height="189.000000pt" viewBox="0 0 189.000000 189.000000"
 preserveAspectRatio="xMidYMid meet">

<g transform="translate(0.000000,189.000000) scale(0.100000,-0.100000)"
fill="#ffffff" stroke="none">
<path d="M750 1856 c-321 -71 -578 -296 -682 -596 -65 -189 -65 -431 0 -620
89 -257 305 -473 562 -562 189 -65 431 -65 620 0 257 89 473 305 562 562 65
189 65 431 0 620 -105 302 -364 527 -685 595 -83 18 -299 18 -377 1z m440
-179 c72 -28 148 -67 176 -90 11 -9 39 -32 64 -52 97 -80 184 -220 230 -370
31 -99 31 -311 0 -410 -46 -150 -133 -290 -230 -370 -25 -20 -53 -43 -64 -52
-30 -24 -106 -63 -181 -91 -66 -25 -80 -27 -240 -27 -160 0 -174 2 -240 27
-75 28 -151 67 -181 91 -11 9 -39 32 -64 52 -97 80 -184 220 -230 370 -31 99
-31 311 0 410 46 150 133 290 230 370 25 20 53 43 64 52 42 34 177 95 261 116
11 3 92 4 180 3 143 -3 167 -6 225 -29z"/>
<path d="M996 1361 c-10 -11 -16 -31 -14 -48 3 -25 7 -28 47 -31 37 -3 48 1
63 20 22 29 23 64 2 72 -32 12 -81 6 -98 -13z"/>
<path d="M890 1090 c-19 -10 -42 -23 -51 -27 -9 -4 -33 -23 -54 -41 -30 -27
-35 -36 -24 -43 28 -18 36 -14 116 51 8 6 14 6 18 0 3 -6 1 -10 -5 -10 -6 0
-8 -4 -5 -10 7 -11 -10 -77 -31 -127 -8 -17 -14 -40 -14 -51 0 -12 -4 -23 -9
-27 -5 -3 -13 -30 -16 -60 -4 -30 -11 -55 -16 -55 -14 0 -10 -53 5 -72 27 -36
108 -16 189 46 64 49 82 67 70 73 -7 2 -13 11 -13 19 0 22 -9 18 -66 -31 -65
-56 -79 -58 -69 -7 4 20 10 42 15 47 4 6 11 31 15 58 4 26 11 47 17 47 5 0 8
6 7 13 -1 6 3 25 9 40 7 16 12 34 12 42 0 7 7 26 15 41 8 16 15 46 15 67 l0
37 -47 0 c-27 -1 -63 -9 -83 -20z"/>
</g>
</svg>
