<?xml version="1.0" standalone="no"?>
<!DOCTYPE svg PUBLIC "-//W3C//DTD SVG 20010904//EN"
 "http://www.w3.org/TR/2001/REC-SVG-20010904/DTD/svg10.dtd">
<svg version="1.0" xmlns="http://www.w3.org/2000/svg"
 width="189.000000pt" height="189.000000pt" viewBox="0 0 189.000000 189.000000"
 preserveAspectRatio="xMidYMid meet">

<g transform="translate(0.000000,189.000000) scale(0.100000,-0.100000)"
fill="#ffffff" stroke="none">
<path d="M750 1856 c-321 -71 -578 -296 -682 -596 -65 -189 -65 -431 0 -620
89 -257 305 -473 562 -562 189 -65 431 -65 620 0 257 89 473 305 562 562 65
189 65 431 0 620 -105 302 -364 527 -685 595 -83 18 -299 18 -377 1z m440
-179 c72 -28 148 -67 176 -90 11 -9 39 -32 64 -52 97 -80 184 -220 230 -370
31 -99 31 -311 0 -410 -46 -150 -133 -290 -230 -370 -25 -20 -53 -43 -64 -52
-30 -24 -106 -63 -181 -91 -66 -25 -80 -27 -240 -27 -160 0 -174 2 -240 27
-75 28 -151 67 -181 91 -11 9 -39 32 -64 52 -97 80 -184 220 -230 370 -31 99
-31 311 0 410 46 150 133 290 230 370 25 20 53 43 64 52 42 34 177 95 261 116
11 3 92 4 180 3 143 -3 167 -6 225 -29z"/>
<path d="M987 1452 c-20 -22 -22 -83 -5 -100 21 -21 75 -15 92 10 19 27 21 79
4 96 -18 18 -73 14 -91 -6z"/>
<path d="M875 1146 c-46 -21 -155 -109 -155 -125 0 -3 9 -12 21 -19 18 -12 25
-9 65 27 38 35 74 53 74 36 0 -3 -16 -58 -35 -123 -71 -242 -91 -362 -63 -390
7 -7 28 -12 48 -12 41 0 98 33 174 101 47 43 48 44 28 62 -19 17 -21 16 -73
-28 -29 -25 -57 -45 -62 -45 -17 0 1 88 58 289 30 106 55 201 55 210 0 46 -58
53 -135 17z"/>
</g>
</svg>
