<?xml version="1.0"?>
<svg xmlns="http://www.w3.org/2000/svg" height="512px" viewBox="0 -27 512 511" width="512px"><path fill="#FFFFFF" fill-opacity="0.8" d="m469.707031 277.304688 42.292969-48.625-42.292969-48.625-67.246093 33.625h-5.28125l34.390624-34.394532-21.210937-21.214844-55.605469 55.609376h-20.855468l-25.96875-45.003907 10.421874-18.050781 75.957032-20.351562-7.761719-28.980469-46.984375 12.589843 2.910156-5.039062 64.265625-42.433594-17.660156-65.910156-65.914063 17.660156-4.292968 71.566406-5.289063 9.160157-12.589843-46.984375-28.976563 7.765625 20.351563 75.960937-10.421876 18.050782h-51.960937l-10.421875-18.050782 20.351562-75.960937-28.976562-7.765625-12.589844 46.984375-4.179687-7.242188-4.410157-73.484375-65.914062-17.660156-17.660156 65.910156 62.664062 41.375 3.519532 6.101563-46.980469-12.589844-7.765625 28.976563 75.960937 20.355468 10.421875 18.050782-25.972656 45h-20.851562l-55.609376-55.605469-21.210937 21.210937 34.394531 34.394532h-5.214844l-67.25-33.625-42.289062 48.625 42.292969 48.625 67.246093-33.625h5.214844l-34.394531 34.394531 21.214844 21.210937 55.605469-55.605468h20.851562l25.972656 45-10.421875 18.050781-75.960937 20.355469 7.765625 28.976562 46.984375-12.585938-3.640625 6.304688-62.84375 41.492188 17.664062 65.910156 65.910157-17.660156 4.398437-73.269532 4.492187-7.78125 12.589844 46.984375 28.976563-7.765625-20.351563-75.960937 10.421875-18.050781h51.960938l10.421875 18.050781-20.351563 75.960937 28.976563 7.765625 12.589844-46.984375 4.933593 8.542969 4.351563 72.507813 65.910156 17.664062 17.664062-65.914062-63.480468-41.914063-3.398438-5.882813 46.984375 12.585938 7.765625-28.976562-75.960937-20.355469-10.421875-18.050781 25.972656-45h20.851562l55.605469 55.605468 21.214844-21.210937-34.394531-34.394531h5.28125zm-7.414062-60 9.855469 11.375-9.855469 11.375-22.753907-11.375zm-154.375 11.375-25.972657 45h-51.960937l-25.972656-45 25.972656-45h51.960937zm43.898437-187.136719 16.050782-4.300781 4.296874 16.046874-21.921874 14.476563zm-211.058594 11.746093 4.300782-16.046874 16.050781 4.300781 1.574219 26.222656zm-91.050781 186.765626-9.855469-11.375 9.855469-11.375 22.753907 11.375zm111.101563 176.085937-16.046875 4.300781-4.300781-16.046875 21.921874-14.476562zm211.058594-11.746094-4.300782 16.046875-16.050781-4.300781-1.574219-26.222656zm0 0"/></svg>
